<svg width="26" height="32" viewBox="0 0 26 32" fill="none" xmlns="http://www.w3.org/2000/svg">
<path d="M1.80078 0.850021C1.80078 0.850021 17.6008 0.37002 25.0608 1.05002V26.84C25.0608 26.84 25.0073 28.8503 24.5792 29.4928C24.5332 29.5618 24.462 29.6071 24.3861 29.6405V29.6405C23.9582 29.8288 23.4448 29.5198 23.2086 29.1163C22.8431 28.4919 22.0243 27.866 20.1953 28.3987C20.1271 28.4185 20.0581 28.4422 19.9943 28.4733C19.8966 28.5209 19.7337 28.6097 19.5471 28.7501C18.5815 29.4765 18.0805 30.7125 16.8928 30.9345C16.7716 30.9571 16.6412 30.9791 16.501 31.0001C14.501 31.3 13.6182 31.3 13.6182 31.3H13.5011C13.0988 31.3 12.8559 31.318 12.5927 31.0137V31.0137C12.396 30.786 12.075 30.3796 11.7942 30.2715C11.3059 30.0835 10.3134 29.7711 8.44078 29.41C8.44078 29.41 7.00098 29.0001 7.00098 30.5001V30.5001C7.00098 31.0208 6.52937 31.4142 6.01717 31.3209L4.20078 30.99C4.20078 30.99 4.00098 31.0001 3.50098 30.0001V30.0001C3.50098 30.0001 1.80078 26.4907 1.80078 24.7621V0.850021Z" stroke="white" stroke-width="0.5" stroke-miterlimit="10"/>
<path d="M8.18875 4.59059V4.81059C8.18875 4.84059 8.17875 4.85059 8.14875 4.85059H8.00875C7.98875 4.85059 7.96875 4.84059 7.96875 4.81059V4.14059C7.96875 4.11059 7.97875 4.10059 8.00875 4.10059H8.41875C8.43875 4.10059 8.45875 4.11059 8.45875 4.14059V4.25059C8.45875 4.28059 8.44875 4.29059 8.41875 4.29059H8.18875V4.40059H8.40875C8.42875 4.40059 8.43875 4.41059 8.43875 4.44059V4.55059C8.43875 4.57059 8.42875 4.59059 8.40875 4.59059H8.18875Z" fill="white"/>
<path d="M9.45047 4.57035V4.67035H9.69047C9.71047 4.67035 9.73047 4.68035 9.73047 4.71035V4.82035C9.73047 4.85035 9.72047 4.86035 9.69047 4.86035H9.27047C9.25047 4.86035 9.23047 4.85035 9.23047 4.82035V4.15035C9.23047 4.12035 9.24047 4.11035 9.27047 4.11035H9.69047C9.71047 4.11035 9.73047 4.12035 9.73047 4.15035V4.26035C9.73047 4.29035 9.72047 4.30035 9.69047 4.30035H9.45047V4.39035H9.67047C9.69047 4.39035 9.70047 4.40035 9.70047 4.43035V4.54035C9.70047 4.56035 9.69047 4.58035 9.67047 4.58035H9.45047V4.57035Z" fill="white"/>
<path d="M10.0481 4.65035H10.2681C10.2881 4.65035 10.3081 4.66035 10.3081 4.69035V4.82035C10.3081 4.85035 10.2981 4.86035 10.2681 4.86035H9.86813C9.84813 4.86035 9.82812 4.85035 9.82812 4.82035V4.15035C9.82812 4.12035 9.83813 4.11035 9.86813 4.11035H10.0181C10.0381 4.11035 10.0581 4.12035 10.0581 4.15035V4.65035H10.0481Z" fill="white"/>
<path d="M8.85859 4.66059C8.89859 4.66059 8.96859 4.61059 8.91859 4.51059C8.88859 4.44059 8.79859 4.24059 8.75859 4.14059C8.74859 4.11059 8.7786 4.10059 8.7886 4.10059H9.09859C9.11859 4.10059 9.13859 4.11059 9.13859 4.14059V4.56059C9.13859 4.75059 9.03859 4.85059 8.84859 4.85059C8.64859 4.85059 8.55859 4.75059 8.55859 4.56059V4.14059C8.55859 4.11059 8.56859 4.10059 8.59859 4.10059H8.68859C8.71859 4.10059 8.71859 4.11059 8.72859 4.14059C8.73859 4.24059 8.76859 4.43059 8.77859 4.54059C8.77859 4.64059 8.80859 4.66059 8.85859 4.66059Z" fill="white"/>
<path d="M8.02047 5.77051C8.00047 5.77051 7.98047 5.76051 7.98047 5.73051V5.06051C7.98047 5.03051 7.99047 5.02051 8.02047 5.02051H8.28047C8.38047 5.02051 8.45047 5.04051 8.49047 5.07051C8.54047 5.10051 8.56047 5.15051 8.56047 5.22051C8.56047 5.26051 8.55047 5.29051 8.53047 5.31051C8.51047 5.34051 8.49047 5.35051 8.47047 5.36051C8.54047 5.39051 8.58047 5.44051 8.58047 5.53051C8.58047 5.68051 8.48047 5.75051 8.29047 5.75051H8.02047V5.77051ZM8.26047 5.32051C8.31047 5.32051 8.34047 5.30051 8.34047 5.26051C8.34047 5.24051 8.33047 5.22051 8.32047 5.21051C8.31047 5.20051 8.29047 5.20051 8.26047 5.20051H8.19047V5.32051H8.26047ZM8.27047 5.60051C8.30047 5.60051 8.32047 5.59051 8.33047 5.58051C8.34047 5.57051 8.35047 5.55051 8.35047 5.53051C8.35047 5.51051 8.34047 5.49051 8.33047 5.48051C8.32047 5.47051 8.30047 5.46051 8.27047 5.46051H8.19047V5.59051H8.27047V5.60051Z" fill="white"/>
<path d="M8.65234 5.49027V5.07027C8.65234 5.04027 8.66234 5.03027 8.69234 5.03027H8.84234C8.86234 5.03027 8.88234 5.04027 8.88234 5.07027V5.47027C8.88234 5.51027 8.89234 5.54027 8.90234 5.55027C8.91234 5.57027 8.93234 5.58027 8.96234 5.58027C8.99234 5.58027 9.01234 5.57027 9.02234 5.55027C9.03234 5.53027 9.04235 5.50027 9.04235 5.47027V5.07027C9.04235 5.04027 9.05234 5.03027 9.08234 5.03027H9.23234C9.25234 5.03027 9.27234 5.04027 9.27234 5.07027V5.49027C9.27234 5.68027 9.17234 5.78027 8.98234 5.78027C8.79234 5.78027 8.65234 5.69027 8.65234 5.49027Z" fill="white"/>
<path d="M9.36813 5.77051C9.34813 5.77051 9.32812 5.76051 9.32812 5.73051V5.06051C9.32812 5.03051 9.33813 5.02051 9.36813 5.02051H9.58813C9.70813 5.02051 9.78813 5.05051 9.84813 5.11051C9.90813 5.17051 9.93813 5.26051 9.93813 5.39051C9.93813 5.52051 9.90813 5.61051 9.84813 5.67051C9.78813 5.73051 9.70813 5.76051 9.58813 5.76051H9.36813V5.77051ZM9.54812 5.23051V5.58051H9.57812C9.62813 5.58051 9.65813 5.57051 9.67813 5.54051C9.69813 5.52051 9.70812 5.47051 9.70812 5.40051C9.70812 5.33051 9.69813 5.29051 9.67813 5.26051C9.65813 5.24051 9.61812 5.22051 9.57812 5.22051H9.54812V5.23051Z" fill="white"/>
<path d="M10.0712 5.77051C10.0512 5.77051 10.0312 5.76051 10.0312 5.73051V5.06051C10.0312 5.03051 10.0412 5.02051 10.0712 5.02051H10.2913C10.4113 5.02051 10.4912 5.05051 10.5512 5.11051C10.6112 5.17051 10.6412 5.26051 10.6412 5.39051C10.6412 5.52051 10.6112 5.61051 10.5512 5.67051C10.4912 5.73051 10.4113 5.76051 10.2913 5.76051H10.0712V5.77051ZM10.2512 5.23051V5.58051H10.2812C10.3313 5.58051 10.3612 5.57051 10.3812 5.54051C10.4012 5.52051 10.4112 5.47051 10.4112 5.40051C10.4112 5.33051 10.4012 5.29051 10.3812 5.26051C10.3612 5.24051 10.3212 5.22051 10.2812 5.22051H10.2512V5.23051Z" fill="white"/>
<path d="M11.0708 5.73004C11.0708 5.76004 11.0608 5.77004 11.0308 5.77004H10.8808C10.8608 5.77004 10.8408 5.76004 10.8408 5.73004V5.50004L10.6208 5.08004C10.6108 5.07004 10.6108 5.06004 10.6208 5.05004C10.6208 5.04004 10.6308 5.04004 10.6508 5.04004H10.8008C10.8208 5.04004 10.8408 5.05004 10.8508 5.07004L10.9208 5.24004L10.9508 5.33004L10.9808 5.24004L11.0408 5.07004C11.0508 5.05004 11.0708 5.04004 11.0908 5.04004H11.2408C11.2508 5.04004 11.2608 5.04004 11.2708 5.05004C11.2708 5.06004 11.2708 5.07004 11.2708 5.08004L11.0608 5.50004V5.73004H11.0708Z" fill="white"/>
<path d="M8.02875 6.20061H7.96875L8.00875 5.96061C8.02875 5.96061 8.03875 5.96061 8.04875 5.96061C8.08875 5.96061 8.10875 5.97061 8.12875 5.99061C8.14875 6.01061 8.15875 6.03061 8.15875 6.06061C8.15875 6.10061 8.14875 6.14061 8.11875 6.17061C8.10875 6.19061 8.07875 6.20061 8.02875 6.20061ZM8.06875 5.99061C8.05875 5.99061 8.05875 5.99061 8.04875 5.99061L8.01875 6.16061H8.02875C8.05875 6.16061 8.07875 6.15061 8.09875 6.13061C8.11875 6.11061 8.11875 6.08061 8.11875 6.05061C8.11875 6.03061 8.10875 6.02061 8.09875 6.01061C8.09875 6.00061 8.08875 5.99061 8.06875 5.99061ZM8.18875 6.13061C8.18875 6.10061 8.19875 6.07061 8.21875 6.05061C8.23875 6.03061 8.25875 6.02061 8.28875 6.02061C8.30875 6.02061 8.32875 6.03061 8.33875 6.04061C8.34875 6.05061 8.35875 6.07061 8.35875 6.09061C8.35875 6.12061 8.34875 6.15061 8.32875 6.17061C8.30875 6.19061 8.28875 6.20061 8.25875 6.20061C8.23875 6.20061 8.21875 6.19061 8.20875 6.18061C8.18875 6.17061 8.18875 6.16061 8.18875 6.13061ZM8.22875 6.13061C8.22875 6.16061 8.23875 6.17061 8.25875 6.17061C8.27875 6.17061 8.28875 6.16061 8.29875 6.15061C8.30875 6.13061 8.30875 6.12061 8.30875 6.09061C8.30875 6.07061 8.29875 6.05061 8.27875 6.05061C8.25875 6.05061 8.24875 6.06061 8.23875 6.07061C8.22875 6.09061 8.22875 6.11061 8.22875 6.13061ZM8.36875 6.13061C8.36875 6.10061 8.37875 6.07061 8.39875 6.05061C8.41875 6.03061 8.43875 6.02061 8.46875 6.02061C8.48875 6.02061 8.50875 6.03061 8.51875 6.04061C8.52875 6.05061 8.53875 6.07061 8.53875 6.09061C8.53875 6.12061 8.52875 6.15061 8.50875 6.17061C8.48875 6.19061 8.46875 6.20061 8.43875 6.20061C8.41875 6.20061 8.39875 6.19061 8.38875 6.18061C8.37875 6.17061 8.36875 6.16061 8.36875 6.13061ZM8.40875 6.13061C8.40875 6.16061 8.41875 6.17061 8.43875 6.17061C8.45875 6.17061 8.46875 6.16061 8.47875 6.15061C8.48875 6.13061 8.48875 6.12061 8.48875 6.09061C8.48875 6.07061 8.47875 6.05061 8.45875 6.05061C8.43875 6.05061 8.42875 6.06061 8.41875 6.07061C8.41875 6.09061 8.40875 6.11061 8.40875 6.13061ZM8.67875 6.07061C8.66875 6.06061 8.65875 6.06061 8.65875 6.06061C8.64875 6.06061 8.63875 6.06061 8.62875 6.07061C8.61875 6.08061 8.61875 6.09061 8.60875 6.10061L8.58875 6.20061H8.54875L8.57875 6.02061H8.61875V6.04061C8.62875 6.03061 8.64875 6.02061 8.66875 6.02061C8.66875 6.02061 8.67875 6.02061 8.68875 6.02061L8.67875 6.07061ZM8.80875 6.07061C8.79875 6.06061 8.78875 6.05061 8.77875 6.05061C8.76875 6.05061 8.76875 6.05061 8.75875 6.05061L8.74875 6.06061C8.74875 6.07061 8.75875 6.07061 8.76875 6.08061C8.77875 6.09061 8.78875 6.09061 8.79875 6.09061C8.80875 6.09061 8.80875 6.10061 8.80875 6.10061C8.80875 6.11061 8.81875 6.11061 8.81875 6.12061C8.81875 6.14061 8.80875 6.15061 8.79875 6.17061C8.78875 6.18061 8.76875 6.19061 8.74875 6.19061C8.72875 6.19061 8.70875 6.18061 8.69875 6.17061L8.71875 6.13061C8.72875 6.14061 8.74875 6.15061 8.75875 6.15061C8.76875 6.15061 8.76875 6.15061 8.77875 6.14061C8.78875 6.14061 8.78875 6.13061 8.78875 6.12061C8.78875 6.11061 8.78875 6.11061 8.77875 6.10061C8.76875 6.09061 8.75875 6.09061 8.74875 6.09061C8.73875 6.09061 8.73875 6.08061 8.72875 6.07061C8.71875 6.06061 8.71875 6.06061 8.71875 6.05061C8.71875 6.03061 8.72875 6.02061 8.73875 6.01061C8.74875 6.00061 8.76875 5.99061 8.78875 5.99061C8.79875 5.99061 8.81875 5.99061 8.83875 6.00061L8.80875 6.07061ZM8.96875 6.06061H8.91875L8.89875 6.14061C8.89875 6.15061 8.89875 6.15061 8.89875 6.16061C8.89875 6.17061 8.90875 6.18061 8.91875 6.18061C8.92875 6.18061 8.93875 6.18061 8.94875 6.17061V6.21061C8.93875 6.21061 8.91875 6.22061 8.89875 6.22061C8.88875 6.22061 8.87875 6.22061 8.86875 6.21061C8.85875 6.20061 8.85875 6.19061 8.85875 6.18061V6.17061L8.87875 6.08061H8.85875L8.86875 6.05061H8.88875L8.89875 6.01061L8.93875 5.99061L8.92875 6.04061H8.97875L8.96875 6.06061ZM9.05875 6.13061C9.04875 6.13061 9.03875 6.13061 9.02875 6.12061V6.13061C9.02875 6.14061 9.02875 6.15061 9.03875 6.16061C9.04875 6.17061 9.05875 6.17061 9.06875 6.17061C9.07875 6.17061 9.07875 6.17061 9.08875 6.16061C9.09875 6.16061 9.10875 6.15061 9.10875 6.15061V6.19061C9.09875 6.20061 9.07875 6.20061 9.05875 6.20061C9.03875 6.20061 9.01875 6.19061 9.00875 6.18061C8.99875 6.17061 8.98875 6.15061 8.98875 6.12061C8.98875 6.09061 8.99875 6.06061 9.01875 6.04061C9.03875 6.02061 9.05875 6.01061 9.08875 6.01061C9.10875 6.01061 9.11875 6.01061 9.12875 6.02061C9.13875 6.03061 9.14875 6.04061 9.14875 6.05061C9.14875 6.07061 9.13875 6.09061 9.12875 6.10061C9.10875 6.12061 9.08875 6.13061 9.05875 6.13061ZM9.03875 6.09061C9.04875 6.09061 9.04875 6.09061 9.05875 6.09061C9.06875 6.09061 9.08875 6.09061 9.09875 6.08061C9.10875 6.08061 9.10875 6.07061 9.10875 6.06061C9.10875 6.05061 9.09875 6.05061 9.07875 6.05061C9.06875 6.05061 9.05875 6.05061 9.05875 6.06061C9.04875 6.07061 9.03875 6.08061 9.03875 6.09061ZM9.22875 6.20061C9.21875 6.20061 9.20875 6.20061 9.19875 6.19061L9.18875 6.26061H9.14875L9.17875 6.07061C9.17875 6.06061 9.17875 6.06061 9.17875 6.05061C9.17875 6.04061 9.17875 6.03061 9.17875 6.02061L9.21875 6.01061C9.21875 6.01061 9.21875 6.02061 9.21875 6.03061C9.22875 6.02061 9.24875 6.01061 9.25875 6.01061C9.29875 6.01061 9.32875 6.03061 9.32875 6.08061C9.32875 6.11061 9.31875 6.14061 9.29875 6.16061C9.28875 6.19061 9.25875 6.20061 9.22875 6.20061ZM9.20875 6.16061C9.21875 6.17061 9.21875 6.17061 9.22875 6.17061C9.24875 6.17061 9.26875 6.16061 9.27875 6.15061C9.28875 6.14061 9.29875 6.12061 9.29875 6.09061C9.29875 6.08061 9.29875 6.07061 9.28875 6.06061C9.27875 6.05061 9.26875 6.05061 9.25875 6.05061C9.24875 6.05061 9.24875 6.05061 9.23875 6.06061C9.22875 6.06061 9.22875 6.07061 9.21875 6.07061L9.20875 6.16061ZM9.63875 6.00061H9.52875L9.51875 6.06061H9.59875L9.58875 6.10061H9.50875L9.48875 6.21061H9.44875L9.48875 5.97061H9.63875V6.00061ZM9.77875 6.20061H9.73875V6.19061C9.72875 6.20061 9.70875 6.21061 9.68875 6.21061C9.67875 6.21061 9.65875 6.21061 9.65875 6.20061C9.64875 6.19061 9.64875 6.18061 9.64875 6.16061C9.64875 6.16061 9.64875 6.15061 9.64875 6.14061L9.66875 6.03061H9.70875L9.68875 6.14061V6.15061C9.68875 6.16061 9.69875 6.17061 9.70875 6.17061C9.71875 6.17061 9.72875 6.17061 9.73875 6.16061C9.74875 6.15061 9.74875 6.14061 9.75875 6.13061L9.77875 6.03061H9.81875L9.77875 6.20061ZM9.89875 6.13061C9.88875 6.13061 9.87875 6.13061 9.86875 6.12061V6.13061C9.86875 6.14061 9.86875 6.15061 9.87875 6.16061C9.88875 6.17061 9.89875 6.17061 9.90875 6.17061C9.91875 6.17061 9.91875 6.17061 9.92875 6.16061C9.93875 6.16061 9.94875 6.15061 9.94875 6.15061V6.19061C9.93875 6.20061 9.91875 6.20061 9.89875 6.20061C9.87875 6.20061 9.85875 6.19061 9.84875 6.18061C9.83875 6.17061 9.82875 6.15061 9.82875 6.12061C9.82875 6.09061 9.83875 6.06061 9.85875 6.04061C9.87875 6.02061 9.89875 6.01061 9.92875 6.01061C9.94875 6.01061 9.95875 6.01061 9.96875 6.02061C9.97875 6.03061 9.98875 6.04061 9.98875 6.05061C9.98875 6.07061 9.97875 6.09061 9.96875 6.10061C9.93875 6.12061 9.91875 6.13061 9.89875 6.13061ZM9.86875 6.09061C9.87875 6.09061 9.87875 6.09061 9.88875 6.09061C9.89875 6.09061 9.91875 6.09061 9.92875 6.08061C9.93875 6.08061 9.93875 6.07061 9.93875 6.06061C9.93875 6.05061 9.92875 6.05061 9.90875 6.05061C9.89875 6.05061 9.88875 6.05061 9.88875 6.06061C9.87875 6.07061 9.87875 6.08061 9.86875 6.09061ZM10.0588 6.19061C10.0488 6.20061 10.0388 6.21061 10.0288 6.21061C10.0188 6.21061 10.0088 6.21061 10.0088 6.20061C9.99875 6.19061 9.99875 6.19061 9.99875 6.17061C9.99875 6.16061 9.99875 6.14061 10.0088 6.11061L10.0388 5.95061H10.0788L10.0487 6.11061C10.0487 6.13061 10.0388 6.15061 10.0388 6.16061C10.0388 6.17061 10.0387 6.17061 10.0487 6.18061L10.0588 6.19061ZM10.2488 6.20061H10.1888L10.2288 5.96061C10.2488 5.96061 10.2588 5.96061 10.2688 5.96061C10.3088 5.96061 10.3288 5.97061 10.3488 5.99061C10.3688 6.01061 10.3787 6.03061 10.3787 6.06061C10.3787 6.10061 10.3688 6.14061 10.3388 6.17061C10.3288 6.19061 10.2888 6.20061 10.2488 6.20061ZM10.2788 5.99061C10.2688 5.99061 10.2688 5.99061 10.2588 5.99061L10.2288 6.16061H10.2388C10.2688 6.16061 10.2888 6.15061 10.3088 6.13061C10.3288 6.11061 10.3288 6.08061 10.3288 6.05061C10.3288 6.03061 10.3188 6.02061 10.3088 6.01061C10.3188 6.00061 10.2988 5.99061 10.2788 5.99061ZM10.4788 6.13061C10.4688 6.13061 10.4588 6.13061 10.4488 6.12061V6.13061C10.4488 6.14061 10.4487 6.15061 10.4587 6.16061C10.4687 6.17061 10.4788 6.17061 10.4888 6.17061C10.4988 6.17061 10.4988 6.17061 10.5088 6.16061C10.5188 6.16061 10.5288 6.15061 10.5288 6.15061V6.19061C10.5188 6.20061 10.4988 6.20061 10.4788 6.20061C10.4588 6.20061 10.4388 6.19061 10.4288 6.18061C10.4188 6.17061 10.4088 6.15061 10.4088 6.12061C10.4088 6.09061 10.4188 6.06061 10.4388 6.04061C10.4588 6.02061 10.4788 6.01061 10.5088 6.01061C10.5288 6.01061 10.5387 6.01061 10.5487 6.02061C10.5587 6.03061 10.5688 6.04061 10.5688 6.05061C10.5688 6.07061 10.5587 6.09061 10.5487 6.10061C10.5187 6.12061 10.4988 6.13061 10.4788 6.13061ZM10.4488 6.09061C10.4588 6.09061 10.4588 6.09061 10.4688 6.09061C10.4787 6.09061 10.4988 6.09061 10.5088 6.08061C10.5188 6.08061 10.5188 6.07061 10.5188 6.06061C10.5188 6.05061 10.5088 6.05061 10.4888 6.05061C10.4788 6.05061 10.4688 6.05061 10.4688 6.06061C10.4588 6.07061 10.4588 6.08061 10.4488 6.09061ZM10.6388 6.19061C10.6288 6.20061 10.6188 6.21061 10.6088 6.21061C10.5988 6.21061 10.5888 6.21061 10.5888 6.20061C10.5788 6.19061 10.5788 6.19061 10.5788 6.17061C10.5788 6.16061 10.5788 6.14061 10.5888 6.11061L10.6188 5.95061H10.6588L10.6287 6.11061C10.6287 6.13061 10.6188 6.15061 10.6188 6.16061C10.6188 6.17061 10.6187 6.17061 10.6287 6.18061L10.6388 6.19061ZM10.7288 6.20061H10.6888L10.7188 6.06061H10.6988L10.7087 6.03061H10.7688L10.7288 6.20061ZM10.7188 5.97061C10.7188 5.96061 10.7188 5.96061 10.7288 5.95061C10.7288 5.95061 10.7388 5.94061 10.7488 5.94061C10.7588 5.94061 10.7588 5.94061 10.7688 5.95061C10.7788 5.95061 10.7788 5.96061 10.7788 5.97061C10.7788 5.98061 10.7788 5.98061 10.7688 5.99061C10.7588 5.99061 10.7588 6.00061 10.7488 6.00061C10.7388 6.00061 10.7388 6.00061 10.7288 5.99061C10.7188 5.98061 10.7188 5.97061 10.7188 5.97061ZM10.8588 6.20061H10.8488L10.7987 6.02061H10.8388L10.8688 6.13061L10.9288 6.02061H10.9788L10.8588 6.20061ZM11.0388 6.13061C11.0288 6.13061 11.0188 6.13061 11.0088 6.12061V6.13061C11.0088 6.14061 11.0088 6.15061 11.0188 6.16061C11.0288 6.17061 11.0387 6.17061 11.0487 6.17061C11.0587 6.17061 11.0588 6.17061 11.0688 6.16061C11.0788 6.16061 11.0888 6.15061 11.0888 6.15061V6.19061C11.0788 6.20061 11.0588 6.20061 11.0388 6.20061C11.0188 6.20061 10.9988 6.19061 10.9888 6.18061C10.9788 6.17061 10.9688 6.15061 10.9688 6.12061C10.9688 6.09061 10.9788 6.06061 10.9988 6.04061C11.0188 6.02061 11.0388 6.01061 11.0688 6.01061C11.0888 6.01061 11.0988 6.01061 11.1088 6.02061C11.1188 6.03061 11.1287 6.04061 11.1287 6.05061C11.1287 6.07061 11.1188 6.09061 11.1088 6.10061C11.0888 6.12061 11.0688 6.13061 11.0388 6.13061ZM11.0088 6.09061C11.0188 6.09061 11.0188 6.09061 11.0288 6.09061C11.0388 6.09061 11.0588 6.09061 11.0688 6.08061C11.0788 6.08061 11.0788 6.07061 11.0788 6.06061C11.0788 6.05061 11.0687 6.05061 11.0487 6.05061C11.0387 6.05061 11.0288 6.05061 11.0288 6.06061C11.0288 6.07061 11.0188 6.08061 11.0088 6.09061ZM11.2688 6.07061C11.2588 6.06061 11.2488 6.06061 11.2488 6.06061C11.2388 6.06061 11.2287 6.06061 11.2188 6.07061C11.2088 6.08061 11.2088 6.09061 11.1988 6.10061L11.1788 6.20061H11.1388L11.1688 6.02061H11.2087V6.04061C11.2187 6.03061 11.2388 6.02061 11.2588 6.02061C11.2588 6.02061 11.2688 6.02061 11.2788 6.02061L11.2688 6.07061ZM11.3688 6.22061C11.3488 6.25061 11.3188 6.27061 11.2788 6.27061V6.23061C11.3088 6.23061 11.3288 6.22061 11.3388 6.20061L11.3488 6.18061C11.3388 6.18061 11.3288 6.16061 11.3188 6.13061L11.2987 6.02061H11.3388C11.3488 6.10061 11.3588 6.14061 11.3588 6.14061L11.4088 6.02061H11.4488L11.3688 6.22061Z" fill="white"/>
<path d="M14.2808 17.5197C14.5308 17.5197 14.8808 17.2697 14.6208 16.7097C14.4408 16.3197 13.9508 15.2197 13.7508 14.6797C13.6908 14.4997 13.8408 14.4697 13.9208 14.4697H15.6108C15.7408 14.4697 15.8108 14.5397 15.8108 14.6797V17.0297C15.8108 18.0997 15.2708 18.6297 14.1808 18.6297C13.1008 18.6297 12.5508 18.0997 12.5508 17.0297V14.6797C12.5508 14.5397 12.6208 14.4697 12.7508 14.4697H13.2608C13.4108 14.4697 13.4408 14.5397 13.4608 14.6797C13.5408 15.2497 13.6808 16.2997 13.7508 16.9097C13.8208 17.3797 13.9908 17.5197 14.2808 17.5197Z" fill="white"/>
<path d="M4.58219 22.5299H5.09219C5.15219 22.5299 5.18219 22.5599 5.18219 22.6099V22.9399C5.18219 22.9899 5.15219 23.0199 5.09219 23.0199H3.58219C3.52219 23.0199 3.49219 22.9899 3.49219 22.9399V21.9999C3.49219 21.9499 3.52219 21.9199 3.58219 21.9199H3.84219C3.90219 21.9199 3.93219 21.9499 3.93219 21.9999V22.5299H4.18219V22.0299C4.18219 21.9799 4.21219 21.9499 4.27219 21.9499H4.50219C4.56219 21.9499 4.58219 21.9799 4.58219 22.0299V22.5299Z" fill="white"/>
<path d="M4.52219 19.6595H4.74219V19.0995C4.74219 19.0495 4.77219 19.0195 4.83219 19.0195H5.09219C5.15219 19.0195 5.18219 19.0495 5.18219 19.0995V20.0595C5.18219 20.1095 5.15219 20.1395 5.09219 20.1395H3.58219C3.52219 20.1395 3.49219 20.1095 3.49219 20.0595V19.1095C3.49219 19.0595 3.52219 19.0295 3.58219 19.0295H3.84219C3.90219 19.0295 3.93219 19.0595 3.93219 19.1095V19.6495H4.13219V19.1395C4.13219 19.0895 4.16219 19.0595 4.22219 19.0595H4.46219C4.52219 19.0595 4.54219 19.0895 4.54219 19.1395V19.6595H4.52219Z" fill="white"/>
<path d="M4.72 18.3095V17.8095C4.72 17.7595 4.75 17.7295 4.81 17.7295H5.1C5.16 17.7295 5.19 17.7595 5.19 17.8095V18.7195C5.19 18.7695 5.16 18.7995 5.1 18.7995H3.59C3.53 18.7995 3.5 18.7695 3.5 18.7195V18.3995C3.5 18.3495 3.53 18.3195 3.59 18.3195H4.72V18.3095Z" fill="white"/>
<path d="M4.74047 21.0099C4.74047 20.9099 4.64047 20.7599 4.41047 20.8699C4.25047 20.9399 3.80047 21.1499 3.57047 21.2299C3.50047 21.2599 3.48047 21.1899 3.48047 21.1599V20.4599C3.48047 20.4099 3.51047 20.3799 3.57047 20.3799H4.54047C4.98047 20.3799 5.20047 20.5999 5.20047 21.0499C5.20047 21.4999 4.98047 21.7199 4.54047 21.7199H3.57047C3.51047 21.7199 3.48047 21.6899 3.48047 21.6399V21.4299C3.48047 21.3699 3.51047 21.3599 3.57047 21.3499C3.81047 21.3199 4.24047 21.2599 4.49047 21.2299C4.69047 21.1999 4.74047 21.1299 4.74047 21.0099Z" fill="white"/>
<path d="M5.17047 17.4199C5.17047 17.4699 5.14047 17.4999 5.08047 17.4999H3.57047C3.51047 17.4999 3.48047 17.4699 3.48047 17.4199V16.8399C3.48047 16.6199 3.51047 16.4599 3.58047 16.3599C3.65047 16.2599 3.77047 16.2099 3.93047 16.2099C4.01047 16.2099 4.08047 16.2299 4.14047 16.2699C4.20047 16.3099 4.24047 16.3599 4.26047 16.4099C4.32047 16.2499 4.45047 16.1699 4.66047 16.1699C4.99047 16.1699 5.16047 16.3899 5.16047 16.8199V17.4199H5.17047ZM4.14047 16.8599C4.14047 16.7399 4.09047 16.6899 4.00047 16.6899C3.95047 16.6899 3.92047 16.6999 3.90047 16.7299C3.88047 16.7499 3.87047 16.7999 3.87047 16.8599V17.0299H4.14047V16.8599ZM4.79047 16.8399C4.79047 16.7699 4.78047 16.7199 4.76047 16.6999C4.74047 16.6699 4.70047 16.6599 4.64047 16.6599C4.59047 16.6599 4.55047 16.6699 4.52047 16.6999C4.50047 16.7299 4.48047 16.7799 4.48047 16.8499V17.0299H4.78047V16.8399H4.79047Z" fill="white"/>
<path d="M4.54047 15.9796H3.57047C3.51047 15.9796 3.48047 15.9496 3.48047 15.8996V15.5696C3.48047 15.5196 3.51047 15.4896 3.57047 15.4896H4.49047C4.58047 15.4896 4.64047 15.4796 4.68047 15.4496C4.72047 15.4196 4.74047 15.3796 4.74047 15.3096C4.74047 15.2396 4.72047 15.1996 4.68047 15.1696C4.64047 15.1396 4.58047 15.1296 4.49047 15.1296H3.57047C3.51047 15.1296 3.48047 15.0996 3.48047 15.0496V14.7196C3.48047 14.6696 3.51047 14.6396 3.57047 14.6396H4.54047C4.98047 14.6396 5.20047 14.8596 5.20047 15.3096C5.20047 15.7596 4.98047 15.9796 4.54047 15.9796Z" fill="white"/>
<path d="M5.17047 14.3299C5.17047 14.3799 5.14047 14.4099 5.08047 14.4099H3.57047C3.51047 14.4099 3.48047 14.3799 3.48047 14.3299V13.8299C3.48047 13.5599 3.55047 13.3699 3.68047 13.2399C3.81047 13.1099 4.03047 13.0499 4.32047 13.0499C4.61047 13.0499 4.83047 13.1099 4.96047 13.2399C5.09047 13.3699 5.16047 13.5699 5.16047 13.8299V14.3299H5.17047ZM3.93047 13.9199H4.72047V13.8499C4.72047 13.7399 4.69047 13.6599 4.64047 13.6099C4.58047 13.5599 4.48047 13.5399 4.33047 13.5399C4.18047 13.5399 4.08047 13.5599 4.02047 13.6099C3.96047 13.6599 3.94047 13.7399 3.94047 13.8499V13.9199H3.93047Z" fill="white"/>
<path d="M5.17047 12.7499C5.17047 12.7999 5.14047 12.8299 5.08047 12.8299H3.57047C3.51047 12.8299 3.48047 12.7999 3.48047 12.7499V12.2499C3.48047 11.9799 3.55047 11.7899 3.68047 11.6599C3.81047 11.5299 4.03047 11.4699 4.32047 11.4699C4.61047 11.4699 4.83047 11.5299 4.96047 11.6599C5.09047 11.7899 5.16047 11.9899 5.16047 12.2499V12.7499H5.17047ZM3.93047 12.3299H4.72047V12.2599C4.72047 12.1499 4.69047 12.0699 4.64047 12.0199C4.58047 11.9699 4.48047 11.9499 4.33047 11.9499C4.18047 11.9499 4.08047 11.9699 4.02047 12.0199C3.96047 12.0699 3.94047 12.1499 3.94047 12.2599V12.3299H3.93047Z" fill="white"/>
<path d="M5.09219 10.4699C5.15219 10.4699 5.18219 10.4999 5.18219 10.5499V10.8799C5.18219 10.9299 5.15219 10.9599 5.09219 10.9599H4.55219L3.59219 11.4599C3.56219 11.4699 3.54219 11.4699 3.52219 11.4599C3.50219 11.4499 3.49219 11.4299 3.49219 11.3999V11.0599C3.49219 11.0099 3.52219 10.9699 3.57219 10.9499L3.95219 10.7899L4.16219 10.7199V10.7099L3.95219 10.6399L3.57219 10.4999C3.52219 10.4799 3.49219 10.4399 3.49219 10.3899V10.0499C3.49219 10.0199 3.50219 9.99992 3.52219 9.98992C3.54219 9.97992 3.57219 9.97992 3.59219 9.98992L4.55219 10.4699H5.09219Z" fill="white"/>
<path d="M6.18813 20.4295V20.5595L5.62812 20.4595C5.61812 20.4195 5.61813 20.3895 5.61813 20.3595C5.61813 20.2795 5.63813 20.2095 5.67813 20.1695C5.71813 20.1295 5.77813 20.0995 5.84813 20.0995C5.94813 20.0995 6.03813 20.1295 6.09813 20.1895C6.15813 20.2495 6.18813 20.3295 6.18813 20.4295ZM5.69813 20.3495C5.69813 20.3595 5.69813 20.3695 5.69813 20.3895L6.08813 20.4595C6.08813 20.4495 6.08813 20.4395 6.08813 20.4295C6.08813 20.3595 6.06813 20.3095 6.01813 20.2695C5.96813 20.2295 5.90812 20.2095 5.82812 20.2095C5.78813 20.2095 5.74812 20.2195 5.72812 20.2495C5.70812 20.2695 5.69813 20.3095 5.69813 20.3495ZM6.02813 20.0695C5.95813 20.0695 5.88813 20.0495 5.83813 20.0095C5.78813 19.9695 5.75813 19.9095 5.75813 19.8495C5.75813 19.7995 5.76812 19.7595 5.79812 19.7295C5.82812 19.6995 5.86813 19.6895 5.91813 19.6895C5.99813 19.6895 6.05813 19.7095 6.10813 19.7495C6.15813 19.7895 6.18813 19.8495 6.18813 19.9195C6.18813 19.9695 6.17812 20.0095 6.14812 20.0395C6.11812 20.0595 6.07813 20.0695 6.02813 20.0695ZM6.02813 19.9795C6.08813 19.9795 6.11813 19.9595 6.11813 19.9095C6.11813 19.8695 6.09812 19.8395 6.05812 19.8195C6.01812 19.7995 5.97813 19.7895 5.92813 19.7895C5.86813 19.7895 5.84813 19.8095 5.84813 19.8595C5.84813 19.8995 5.86812 19.9295 5.89812 19.9495C5.93812 19.9695 5.97813 19.9795 6.02813 19.9795ZM6.02813 19.6495C5.95813 19.6495 5.88813 19.6295 5.83813 19.5895C5.78813 19.5495 5.75813 19.4895 5.75813 19.4295C5.75813 19.3795 5.76812 19.3395 5.79812 19.3095C5.82812 19.2795 5.86813 19.2695 5.91813 19.2695C5.99813 19.2695 6.05813 19.2895 6.10813 19.3295C6.15813 19.3695 6.18813 19.4295 6.18813 19.4995C6.18813 19.5495 6.17812 19.5895 6.14812 19.6195C6.11812 19.6295 6.07813 19.6495 6.02813 19.6495ZM6.02813 19.5495C6.08813 19.5495 6.11813 19.5295 6.11813 19.4795C6.11813 19.4395 6.09812 19.4095 6.05812 19.3895C6.01812 19.3695 5.97813 19.3595 5.92813 19.3595C5.86813 19.3595 5.84813 19.3795 5.84813 19.4295C5.84813 19.4695 5.86812 19.4995 5.89812 19.5195C5.93812 19.5395 5.97813 19.5495 6.02813 19.5495ZM5.86813 18.9295C5.84813 18.9495 5.83813 18.9695 5.83813 18.9895C5.83813 19.0095 5.84813 19.0395 5.86813 19.0595C5.88813 19.0795 5.91813 19.0895 5.93813 19.0995L6.16813 19.1395V19.2295L5.75813 19.1595V19.0695L5.79812 19.0795C5.76812 19.0495 5.75813 19.0095 5.75813 18.9695C5.75813 18.9595 5.75813 18.9395 5.76813 18.9195L5.86813 18.9295ZM5.88812 18.6195C5.85812 18.6495 5.84813 18.6795 5.84813 18.6995C5.84813 18.7195 5.84813 18.7295 5.85813 18.7395C5.86813 18.7495 5.87812 18.7595 5.88812 18.7595C5.90812 18.7595 5.91813 18.7495 5.92813 18.7195C5.93813 18.6895 5.95812 18.6695 5.95812 18.6595C5.96812 18.6495 5.97812 18.6295 5.98812 18.6295C5.99812 18.6195 6.01813 18.6195 6.03813 18.6195C6.08813 18.6195 6.11812 18.6395 6.14812 18.6695C6.17812 18.6995 6.18813 18.7395 6.18813 18.7895C6.18813 18.8295 6.17812 18.8795 6.14812 18.9195L6.05812 18.8695C6.08812 18.8395 6.10813 18.8095 6.10813 18.7795C6.10813 18.7595 6.10813 18.7495 6.09813 18.7295C6.08813 18.7195 6.07812 18.7095 6.05812 18.7095C6.04812 18.7095 6.02813 18.7195 6.01813 18.7395C6.00813 18.7595 5.99812 18.7795 5.98812 18.7995C5.97812 18.8195 5.96813 18.8295 5.94813 18.8395C5.92813 18.8495 5.91812 18.8495 5.89812 18.8495C5.85812 18.8495 5.82812 18.8295 5.79812 18.7995C5.77812 18.7695 5.75813 18.7295 5.75813 18.6895C5.75813 18.6595 5.76813 18.6195 5.78813 18.5695L5.88812 18.6195ZM5.84813 18.2595V18.3695L6.02813 18.4095C6.03813 18.4095 6.05812 18.4095 6.06812 18.4095C6.09812 18.4095 6.10813 18.3895 6.10813 18.3595C6.10813 18.3495 6.09813 18.3195 6.08813 18.2895H6.17813C6.18813 18.3195 6.18813 18.3495 6.18813 18.3995C6.18813 18.4295 6.17812 18.4495 6.15812 18.4695C6.13812 18.4895 6.10812 18.4995 6.07812 18.4995C6.06813 18.4995 6.05812 18.4995 6.04812 18.4995L5.83813 18.4595V18.5095L5.75813 18.4895V18.4395L5.67813 18.4195L5.63812 18.3195L5.75813 18.3495V18.2395L5.84813 18.2595ZM6.01813 18.0295C6.01813 18.0595 6.01813 18.0795 6.00813 18.1095C6.01813 18.1095 6.01813 18.1095 6.02813 18.1095C6.05813 18.1095 6.07813 18.0995 6.09813 18.0895C6.11813 18.0695 6.11813 18.0495 6.11813 18.0195C6.11813 17.9995 6.11813 17.9895 6.10813 17.9695C6.09813 17.9495 6.08812 17.9295 6.07812 17.9195L6.17813 17.9295C6.18813 17.9595 6.19813 17.9995 6.19813 18.0395C6.19813 18.0895 6.17812 18.1295 6.14812 18.1595C6.11812 18.1895 6.06813 18.2095 6.01813 18.2095C5.94813 18.2095 5.88813 18.1895 5.83813 18.1395C5.78813 18.0995 5.76813 18.0395 5.76813 17.9695C5.76813 17.9295 5.77812 17.8995 5.79812 17.8695C5.81812 17.8395 5.83812 17.8295 5.87812 17.8295C5.92812 17.8295 5.95812 17.8495 5.98812 17.8895C6.00812 17.9295 6.01813 17.9695 6.01813 18.0295ZM5.92813 18.0895C5.92813 18.0695 5.93813 18.0595 5.93813 18.0395C5.93813 18.0095 5.92813 17.9795 5.91813 17.9595C5.90813 17.9395 5.88813 17.9295 5.86813 17.9295C5.84813 17.9295 5.83813 17.9495 5.83813 17.9995C5.83813 18.0195 5.84813 18.0395 5.86813 18.0595C5.88813 18.0695 5.90813 18.0795 5.92813 18.0895ZM6.18813 17.6295C6.18813 17.6595 6.17813 17.6795 6.16813 17.7095L6.33813 17.7395V17.8295L5.88812 17.7495C5.86812 17.7495 5.85813 17.7495 5.83813 17.7495C5.81813 17.7495 5.78813 17.7495 5.76813 17.7595L5.74813 17.6695C5.75813 17.6695 5.76813 17.6595 5.78813 17.6595C5.75813 17.6295 5.74813 17.5895 5.74813 17.5595C5.74813 17.4595 5.79812 17.3995 5.90812 17.3995C5.98812 17.3995 6.04813 17.4195 6.09813 17.4595C6.16813 17.4995 6.18813 17.5595 6.18813 17.6295ZM6.08813 17.6895C6.09813 17.6795 6.10813 17.6595 6.10813 17.6395C6.10813 17.5895 6.08812 17.5495 6.05812 17.5295C6.02812 17.4995 5.98813 17.4895 5.92813 17.4895C5.89813 17.4895 5.87813 17.4995 5.86813 17.5095C5.84813 17.5295 5.84813 17.5495 5.84813 17.5695C5.84813 17.5795 5.84813 17.5995 5.85813 17.6095C5.86813 17.6295 5.87812 17.6395 5.88812 17.6495L6.08813 17.6895ZM5.70812 16.6895V16.9495L5.83813 16.9695V16.7795L5.91813 16.7995V16.9895L6.17813 17.0395V17.1395L5.60813 17.0395V16.6795L5.70812 16.6895ZM6.18813 16.3595V16.4495L6.15812 16.4395C6.17812 16.4695 6.19813 16.5095 6.19813 16.5595C6.19813 16.5895 6.18813 16.6195 6.16813 16.6395C6.14813 16.6595 6.11813 16.6695 6.08813 16.6695C6.07813 16.6695 6.06812 16.6695 6.04812 16.6695L5.77813 16.6195V16.5295L6.03813 16.5795C6.04813 16.5795 6.05812 16.5795 6.06812 16.5795C6.09812 16.5795 6.11813 16.5595 6.11813 16.5295C6.11813 16.4995 6.10813 16.4795 6.08813 16.4595C6.06813 16.4395 6.04813 16.4295 6.01813 16.4195L5.77813 16.3795V16.2895L6.18813 16.3595ZM6.01813 16.0795C6.01813 16.1095 6.01813 16.1295 6.00813 16.1595C6.01813 16.1595 6.01813 16.1595 6.02813 16.1595C6.05813 16.1595 6.07813 16.1495 6.09813 16.1395C6.11813 16.1195 6.11813 16.0995 6.11813 16.0695C6.11813 16.0495 6.11813 16.0395 6.10813 16.0195C6.09813 15.9995 6.08812 15.9795 6.07812 15.9695L6.17813 15.9795C6.18813 16.0095 6.19813 16.0495 6.19813 16.0895C6.19813 16.1395 6.17812 16.1795 6.14812 16.2095C6.11812 16.2395 6.06813 16.2595 6.01813 16.2595C5.94813 16.2595 5.88813 16.2395 5.83813 16.1895C5.78813 16.1495 5.76813 16.0895 5.76813 16.0195C5.76813 15.9795 5.77812 15.9495 5.79812 15.9195C5.81812 15.8895 5.83812 15.8795 5.87812 15.8795C5.92812 15.8795 5.95812 15.8995 5.98812 15.9395C6.00812 15.9795 6.01813 16.0195 6.01813 16.0795ZM5.92813 16.1395C5.92813 16.1195 5.93813 16.1095 5.93813 16.0895C5.93813 16.0595 5.92813 16.0295 5.91813 16.0095C5.90813 15.9895 5.88813 15.9795 5.86813 15.9795C5.84813 15.9795 5.83813 15.9995 5.83813 16.0495C5.83813 16.0695 5.84813 16.0895 5.86813 16.1095C5.88813 16.1195 5.90813 16.1295 5.92813 16.1395ZM6.14812 15.6995C6.16812 15.7095 6.18813 15.7395 6.18813 15.7695C6.18813 15.7895 6.17813 15.8095 6.16813 15.8195C6.14813 15.8295 6.13813 15.8395 6.10813 15.8395C6.07813 15.8395 6.02812 15.8295 5.96812 15.8195L5.59813 15.7495V15.6595L5.97812 15.7395C6.02812 15.7495 6.06813 15.7595 6.09813 15.7595C6.10813 15.7595 6.12812 15.7595 6.13812 15.7495C6.14812 15.7195 6.14812 15.7095 6.14812 15.6995ZM6.18813 15.2595V15.3895L5.62812 15.2895C5.61812 15.2495 5.61813 15.2195 5.61813 15.1895C5.61813 15.1095 5.63813 15.0395 5.67813 14.9995C5.71813 14.9595 5.77813 14.9295 5.84813 14.9295C5.94813 14.9295 6.03813 14.9595 6.09813 15.0195C6.15813 15.0795 6.18813 15.1595 6.18813 15.2595ZM5.69813 15.1795C5.69813 15.1895 5.69813 15.1995 5.69813 15.2195L6.08813 15.2895C6.08813 15.2795 6.08813 15.2695 6.08813 15.2595C6.08813 15.1895 6.06813 15.1395 6.01813 15.0995C5.96813 15.0595 5.90812 15.0395 5.82812 15.0395C5.78813 15.0395 5.74812 15.0495 5.72812 15.0795C5.70812 15.0995 5.69813 15.1295 5.69813 15.1795ZM6.01813 14.7195C6.01813 14.7495 6.01813 14.7695 6.00813 14.7995C6.01813 14.7995 6.01813 14.7995 6.02813 14.7995C6.05813 14.7995 6.07813 14.7895 6.09813 14.7795C6.11813 14.7595 6.11813 14.7395 6.11813 14.7095C6.11813 14.6895 6.11813 14.6795 6.10813 14.6595C6.09813 14.6395 6.08812 14.6195 6.07812 14.6095L6.17813 14.6195C6.18813 14.6495 6.19813 14.6895 6.19813 14.7295C6.19813 14.7795 6.17812 14.8195 6.14812 14.8495C6.11812 14.8795 6.06813 14.8995 6.01813 14.8995C5.94813 14.8995 5.88813 14.8795 5.83813 14.8295C5.78813 14.7895 5.76813 14.7295 5.76813 14.6595C5.76813 14.6195 5.77812 14.5895 5.79812 14.5595C5.81812 14.5295 5.83812 14.5195 5.87812 14.5195C5.92812 14.5195 5.95812 14.5395 5.98812 14.5795C6.00812 14.6195 6.01813 14.6695 6.01813 14.7195ZM5.92813 14.7895C5.92813 14.7695 5.93813 14.7595 5.93813 14.7395C5.93813 14.7095 5.92813 14.6795 5.91813 14.6595C5.90813 14.6395 5.88813 14.6295 5.86813 14.6295C5.84813 14.6295 5.83813 14.6495 5.83813 14.6995C5.83813 14.7195 5.84813 14.7395 5.86813 14.7595C5.88813 14.7595 5.90813 14.7695 5.92813 14.7895ZM6.14812 14.3395C6.16812 14.3495 6.18813 14.3795 6.18813 14.4095C6.18813 14.4295 6.17813 14.4495 6.16813 14.4595C6.14813 14.4695 6.13813 14.4795 6.10813 14.4795C6.07813 14.4795 6.02812 14.4695 5.96812 14.4595L5.59813 14.3895V14.2995L5.97812 14.3795C6.02812 14.3895 6.06813 14.3995 6.09813 14.3995C6.10813 14.3995 6.12812 14.3995 6.13812 14.3895C6.14812 14.3595 6.14812 14.3495 6.14812 14.3395ZM6.18813 14.1295V14.2195L5.84813 14.1595V14.2095L5.76813 14.1895V14.0495L6.18813 14.1295ZM5.63812 14.1595C5.61812 14.1595 5.60813 14.1495 5.59813 14.1395C5.58813 14.1295 5.57812 14.1095 5.57812 14.0995C5.57812 14.0795 5.58813 14.0695 5.59813 14.0595C5.60813 14.0495 5.62812 14.0395 5.63812 14.0395C5.65812 14.0395 5.66813 14.0495 5.67813 14.0595C5.68813 14.0695 5.69813 14.0895 5.69813 14.0995C5.69813 14.1195 5.68813 14.1295 5.67813 14.1395C5.66813 14.1495 5.65812 14.1595 5.63812 14.1595ZM6.18813 13.8395V13.8695L5.76813 13.9895V13.8895L6.01813 13.8195L5.76813 13.6795V13.5695L6.18813 13.8395ZM6.01813 13.4095C6.01813 13.4395 6.01813 13.4595 6.00813 13.4895C6.01813 13.4895 6.01813 13.4895 6.02813 13.4895C6.05813 13.4895 6.07813 13.4795 6.09813 13.4695C6.11813 13.4495 6.11813 13.4295 6.11813 13.3995C6.11813 13.3795 6.11813 13.3695 6.10813 13.3495C6.09813 13.3295 6.08812 13.3095 6.07812 13.2995L6.17813 13.3095C6.18813 13.3395 6.19813 13.3795 6.19813 13.4195C6.19813 13.4695 6.17812 13.5095 6.14812 13.5395C6.11812 13.5695 6.06813 13.5895 6.01813 13.5895C5.94813 13.5895 5.88813 13.5695 5.83813 13.5195C5.78813 13.4795 5.76813 13.4195 5.76813 13.3495C5.76813 13.3095 5.77812 13.2795 5.79812 13.2495C5.81812 13.2195 5.83812 13.2095 5.87812 13.2095C5.92812 13.2095 5.95812 13.2295 5.98812 13.2695C6.00812 13.2995 6.01813 13.3495 6.01813 13.4095ZM5.92813 13.4695C5.92813 13.4495 5.93813 13.4395 5.93813 13.4195C5.93813 13.3895 5.92813 13.3595 5.91813 13.3395C5.90813 13.3195 5.88813 13.3095 5.86813 13.3095C5.84813 13.3095 5.83813 13.3295 5.83813 13.3795C5.83813 13.3995 5.84813 13.4195 5.86813 13.4395C5.88813 13.4395 5.90813 13.4595 5.92813 13.4695ZM5.86813 12.8795C5.84813 12.8995 5.83813 12.9195 5.83813 12.9395C5.83813 12.9595 5.84813 12.9895 5.86813 13.0095C5.88813 13.0295 5.91813 13.0395 5.93813 13.0495L6.16813 13.0895V13.1795L5.75813 13.1095V13.0195L5.79812 13.0295C5.76812 12.9995 5.75813 12.9595 5.75813 12.9195C5.75813 12.9095 5.75813 12.8895 5.76813 12.8695L5.86813 12.8795ZM6.22812 12.6395C6.30812 12.6795 6.34813 12.7495 6.34813 12.8495H6.25813C6.25813 12.7795 6.23813 12.7395 6.18813 12.7195L6.13812 12.6995C6.12812 12.7295 6.08813 12.7595 6.02813 12.7695L5.77813 12.8195V12.7195C5.95813 12.6895 6.05812 12.6695 6.05812 12.6695L5.77813 12.5395V12.4395L6.22812 12.6395Z" fill="white"/>
<path d="M14.8181 7.64992H13.5681C12.8781 7.64992 12.3281 7.08992 12.3281 6.40992V5.15992C12.3281 4.46992 12.8881 3.91992 13.5681 3.91992H14.8181C15.5081 3.91992 16.0581 4.47992 16.0581 5.15992V6.40992C16.0681 7.08992 15.5081 7.64992 14.8181 7.64992Z" stroke="white" stroke-width="0.25" stroke-miterlimit="10"/>
<path d="M15.3723 8.68023C15.4938 8.68023 15.5923 8.58174 15.5923 8.46023C15.5923 8.33873 15.4938 8.24023 15.3723 8.24023C15.2508 8.24023 15.1523 8.33873 15.1523 8.46023C15.1523 8.58174 15.2508 8.68023 15.3723 8.68023Z" stroke="white" stroke-width="0.25" stroke-miterlimit="10"/>
<path d="M15.4308 9.76977C15.6407 9.76977 15.8108 9.59963 15.8108 9.38976C15.8108 9.1799 15.6407 9.00977 15.4308 9.00977C15.2209 9.00977 15.0508 9.1799 15.0508 9.38976C15.0508 9.59963 15.2209 9.76977 15.4308 9.76977Z" stroke="white" stroke-width="0.5" stroke-miterlimit="10"/>
<path d="M13.9714 8.24023H12.9414V9.27024H13.9714V8.24023Z" stroke="white" stroke-width="0.25" stroke-miterlimit="10"/>
<path d="M20.6608 16.6206H19.6008C19.0208 16.6206 18.5508 16.1506 18.5508 15.5706V4.40059C18.5508 3.82059 19.0208 3.35059 19.6008 3.35059H20.6508C21.2308 3.35059 21.7008 3.82059 21.7008 4.40059V15.5706C21.7108 16.1506 21.2408 16.6206 20.6608 16.6206Z" stroke="white" stroke-width="0.5" stroke-miterlimit="10"/>
<path d="M21.9095 5.99023L22.7595 6.02024V9.77024H22.0295L22.0595 7.97023C22.0595 7.97023 21.6995 7.82023 21.9095 7.00023V5.99023Z" stroke="white" stroke-width="0.25" stroke-miterlimit="10"/>
<path d="M22.4187 4.61974L22.4688 3.61974C22.4688 3.61974 22.6587 3.49974 22.7087 3.61974C22.7587 3.73974 22.7087 4.61974 22.7087 4.61974H22.7687L22.7087 6.01974L22.2188 5.99974V4.59974L22.4187 4.61974Z" stroke="white" stroke-width="0.25" stroke-miterlimit="10"/>
<path d="M22.6984 9.77051H22.1484V11.2505H22.6984V9.77051Z" stroke="white" stroke-width="0.5" stroke-miterlimit="10"/>
<path d="M22.6511 11.29C22.6511 11.29 22.8111 12.28 22.1511 12.8C22.1511 12.8 22.2611 15.29 21.6211 15.54" stroke="white" stroke-width="0.5" stroke-miterlimit="10"/>
<path d="M2.03062 14.9306H1.22062C1.04062 14.9306 0.890625 14.7806 0.890625 14.6006V12.9706C0.890625 12.7906 1.04062 12.6406 1.22062 12.6406H1.99062L2.03062 14.9306Z" stroke="white" stroke-width="0.25" stroke-miterlimit="10"/>
<path d="M25.1102 13.89H24.9102V12.04H25.1102C25.3302 12.04 25.5002 12.21 25.5002 12.43V13.5C25.5002 13.72 25.3302 13.89 25.1102 13.89Z" stroke="white" stroke-width="0.25" stroke-miterlimit="10"/>
</svg>
